<?xml version="1.0" encoding="utf-8"?>
<!-- Generator: Adobe Adobe Illustrator 24.2.0, SVG Export Plug-In . SVG Version: 6.00 Build 0)  -->
<svg version="1.1" id="Layer_1" xmlns="http://www.w3.org/2000/svg" xmlns:xlink="http://www.w3.org/1999/xlink" x="0px" y="0px"
	 width="141.89px" height="141.89px" viewBox="0 0 141.89 141.89" style="enable-background:new 0 0 141.89 141.89;"
	 xml:space="preserve">
<style type="text/css">
	.st0{fill:#49BABC;}
	.st1{fill:#70CBCC;}
	.st2{fill:#424242;}
</style>
<polygon class="st0" points="115.19,0.03 45.96,141.87 26.71,141.87 95.93,0.03 "/>
<line class="st1" x1="95.93" y1="0.03" x2="26.71" y2="141.87"/>
<line class="st1" x1="115.19" y1="0.03" x2="45.96" y2="141.87"/>
<g>
	<g>
		<path class="st2" d="M20.08,48.15c3.32-4.5,9.31-11.51,15.54-19.05h14.33L34.22,46.16l17.22,28.1H37.29L25.86,54.17l-5.78,5.6
			v14.49H7.58V10.58h12.5V48.15z"/>
	</g>
</g>
<g>
	<g>
		<path class="st2" d="M133.87,107.38c0,4.3,0.35,10.58,0.61,11.66h-11.94c-0.35-0.89-0.61-3.27-0.63-4.41
			c-1.64,2.54-4.71,5.46-12.69,5.46c-10.88,0-15.48-7.16-15.48-14.16c0-10.29,8.26-15.03,21.5-15.03c2.2,0,4.93,0,6.44,0v-2.76
			c0-3.21-1.15-6.37-6.95-6.37c-5.28,0-6.43,2.24-7.01,5.51H95.83c0.68-8.02,5.64-14.51,19.36-14.44
			c12.09,0.08,18.67,4.8,18.67,15.55V107.38z M121.69,98.49c-1.04,0-3.44,0-5.09,0c-7.53,0-10.33,2.3-10.33,6.65
			c0,3.27,2,6.02,6.5,6.02c7.94,0,8.92-5.52,8.92-11.49V98.49z"/>
	</g>
</g>
</svg>
