<?xml version="1.0" encoding="utf-8"?>
<!-- Generator: Adobe Adobe Illustrator 24.2.0, SVG Export Plug-In . SVG Version: 6.00 Build 0)  -->
<svg version="1.1" id="Layer_1" xmlns="http://www.w3.org/2000/svg" xmlns:xlink="http://www.w3.org/1999/xlink" x="0px" y="0px"
	 width="545.44px" height="180px" viewBox="0 0 545.44 180" style="enable-background:new 0 0 545.44 180;" xml:space="preserve">
<style type="text/css">
	.st0{fill:#49BABC;}
	.st1{fill:#70CBCC;}
	.st2{fill:#424242;}
</style>
<polygon class="st0" points="112.29,0 24.43,180 0,180 87.85,0 "/>
<line class="st1" x1="87.85" y1="0" x2="0" y2="180"/>
<line class="st1" x1="112.29" y1="0" x2="24.43" y2="180"/>
<g>
	<g>
		<g>
			<path class="st2" d="M153.58,54.19c3.32-4.5,9.31-11.51,15.54-19.05h14.33L167.72,52.2l17.22,28.1h-14.16l-11.42-20.08l-5.78,5.6
				v14.49h-12.5V16.62h12.5V54.19z"/>
			<path class="st2" d="M199.6,60.39c0.01,5.65,2.84,11.17,9.06,11.17c5.2,0,6.69-2.09,7.88-4.82h12.51
				c-1.6,5.53-6.53,14.6-20.71,14.6c-14.87,0-21.32-11.12-21.32-22.96c0-14.16,7.27-24.28,21.77-24.28
				c15.5,0,20.78,11.22,20.78,22.49c0,1.53,0,2.52-0.16,3.81H199.6z M217.04,52.71c-0.09-5.26-2.19-9.68-8.28-9.68
				c-5.99,0-8.4,4.13-8.9,9.68H217.04z"/>
			<path class="st2" d="M238.06,47.39c0-4.49-0.01-8.47-0.09-12.25h12.26c0.16,1.01,0.33,5.49,0.33,7.93
				c1.99-5.16,6.81-8.93,14.49-8.97v11.93c-9.07-0.23-14.49,2.21-14.49,14.58v19.68h-12.5V47.39z"/>
			<path class="st2" d="M274.1,80.29V44.54h-6.58v-9.4h6.58v-3.97c0-9.32,4.63-15.43,14.4-15.43c2.08,0,4.69,0.19,5.81,0.53v9.87
				c-0.69-0.12-1.63-0.22-2.64-0.22c-3.69,0-5.07,1.36-5.07,6.18v3.02h7.89v9.4h-7.89v35.75H274.1z"/>
		</g>
	</g>
	<g>
		<g>
			<path class="st2" d="M130.91,149.42c0,4.3,0.35,10.58,0.61,11.66h-11.94c-0.35-0.89-0.61-3.27-0.63-4.41
				c-1.64,2.54-4.71,5.46-12.69,5.46c-10.89,0-15.48-7.16-15.48-14.16c0-10.29,8.26-15.03,21.49-15.03c2.2,0,4.93,0,6.44,0v-2.76
				c0-3.21-1.15-6.37-6.95-6.37c-5.28,0-6.43,2.24-7.01,5.51H92.87c0.68-8.02,5.64-14.51,19.36-14.44
				c12.09,0.08,18.67,4.8,18.67,15.55V149.42z M118.73,140.53c-1.04,0-3.44,0-5.09,0c-7.53,0-10.32,2.3-10.32,6.65
				c0,3.27,2,6.02,6.5,6.02c7.94,0,8.92-5.52,8.92-11.49V140.53z"/>
			<path class="st2" d="M181.98,147.96c0,4.35,0.01,9.08,0.09,13.12h-12.25c-0.17-1.21-0.26-3.63-0.34-5.21
				c-2.68,4.53-6.66,6.25-12.43,6.25c-9.2,0-15.07-5.59-15.07-16.79v-29.41h12.49v26.9c0,4.99,1.55,9.1,6.96,9.1
				c5.7,0,8.06-3.04,8.06-11.98v-24.03h12.5V147.96z"/>
			<path class="st2" d="M188.85,115.93h6.96v-12.22h12.5v12.22h8.84v9.4h-8.84v22.28c0,3.43,1.05,4.76,4.77,4.76
				c0.69,0,1.91-0.01,2.85-0.14v8.6c-2.48,0.84-5.88,0.86-8.4,0.86c-8.81,0-11.72-4.71-11.72-12.61v-23.75h-6.96V115.93z"/>
			<path class="st2" d="M266.9,138.42c0,13.66-8.17,23.71-22.48,23.71c-14,0-22.17-9.99-22.17-23.47c0-13.93,8.43-23.77,22.76-23.77
				C258.31,114.89,266.9,124.27,266.9,138.42z M234.94,138.51c0,8.69,3.74,13.84,9.76,13.84c6.12,0,9.52-5.15,9.52-13.76
				c0-9.45-3.47-13.92-9.69-13.92C238.73,124.67,234.94,128.96,234.94,138.51z"/>
			<path class="st2" d="M275.49,127.57c0-3.9,0-7.77-0.09-11.64h11.95c0.16,1.1,0.42,3.62,0.48,5.38c2.29-3.36,5.92-6.43,12.54-6.43
				c6.49,0,10.06,3.36,11.65,6.87c2.64-3.69,6.54-6.87,13.91-6.87c7.87,0,14.31,4.83,14.31,16.58v29.62h-12.19v-28.09
				c0-4.08-1.48-8.06-6.6-8.06c-5.31,0-7.38,3.42-7.38,10.35v25.81h-12.26v-27.62c0-4.68-1.15-8.46-6.49-8.46
				c-5.08,0-7.49,3.12-7.49,10.87v25.21h-12.35V127.57z"/>
			<path class="st2" d="M388.89,149.42c0,4.3,0.35,10.58,0.61,11.66h-11.94c-0.35-0.89-0.61-3.27-0.63-4.41
				c-1.64,2.54-4.71,5.46-12.69,5.46c-10.89,0-15.48-7.16-15.48-14.16c0-10.29,8.26-15.03,21.49-15.03c2.21,0,4.93,0,6.44,0v-2.76
				c0-3.21-1.15-6.37-6.95-6.37c-5.28,0-6.43,2.24-7.01,5.51h-11.89c0.68-8.02,5.64-14.51,19.36-14.44
				c12.09,0.08,18.67,4.8,18.67,15.55V149.42z M376.71,140.53c-1.04,0-3.44,0-5.09,0c-7.53,0-10.32,2.3-10.32,6.65
				c0,3.27,2,6.02,6.5,6.02c7.94,0,8.92-5.52,8.92-11.49V140.53z"/>
			<path class="st2" d="M395.81,115.93h6.96v-12.22h12.5v12.22h8.84v9.4h-8.84v22.28c0,3.43,1.05,4.76,4.77,4.76
				c0.69,0,1.91-0.01,2.85-0.14v8.6c-2.48,0.84-5.88,0.86-8.4,0.86c-8.81,0-11.72-4.71-11.72-12.61v-23.75h-6.96V115.93z"/>
			<path class="st2" d="M431.87,97.41h12.5v11.15h-12.5V97.41z M431.87,115.93h12.5v45.15h-12.5V115.93z"/>
			<path class="st2" d="M497.59,138.42c0,13.66-8.17,23.71-22.48,23.71c-14,0-22.17-9.99-22.17-23.47
				c0-13.93,8.43-23.77,22.76-23.77C488.99,114.89,497.59,124.27,497.59,138.42z M465.63,138.51c0,8.69,3.74,13.84,9.76,13.84
				c6.12,0,9.52-5.15,9.52-13.76c0-9.45-3.47-13.92-9.69-13.92C469.42,124.67,465.63,128.96,465.63,138.51z"/>
			<path class="st2" d="M506.25,127.31c0-3.84,0-8.04-0.09-11.37h12.11c0.25,1.17,0.42,4.3,0.48,5.75c1.53-2.83,5.19-6.8,13.1-6.8
				c9.07,0,14.96,6.13,14.96,17.47v28.72h-12.5v-27.33c0-5.08-1.69-8.75-7.21-8.75c-5.31,0-8.35,2.95-8.35,10.92v25.16h-12.5V127.31
				z"/>
		</g>
	</g>
</g>
</svg>
