<?xml version="1.0" encoding="utf-8"?>
<!-- Generator: Adobe Adobe Illustrator 24.2.0, SVG Export Plug-In . SVG Version: 6.00 Build 0)  -->
<svg version="1.1" id="Layer_1" xmlns="http://www.w3.org/2000/svg" xmlns:xlink="http://www.w3.org/1999/xlink" x="0px" y="0px"
	 width="141.89px" height="141.89px" viewBox="0 0 141.89 141.89" style="enable-background:new 0 0 141.89 141.89;"
	 xml:space="preserve">
<style type="text/css">
	.st0{fill:#49BABC;}
	.st1{fill:#70CBCC;}
	.st2{fill:#424242;}
</style>
<polygon class="st0" points="121.71,0.03 52.48,141.87 33.23,141.87 102.46,0.03 "/>
<line class="st1" x1="102.46" y1="2.03" x2="33.23" y2="143.87"/>
<g>
	<g>
		<path class="st2" d="M20.96,48.94c3.84-5.21,10.77-13.32,17.98-22.03h16.58l-18.2,19.72l19.92,32.5H40.86L27.64,55.89l-6.69,6.47
			v16.76H6.5V5.48h14.46V48.94z"/>
	</g>
</g>
<g>
	<g>
		<path class="st2" d="M135.3,119.96c0,4.97,0.4,12.23,0.71,13.49h-13.81c-0.4-1.03-0.71-3.79-0.73-5.1
			c-1.89,2.93-5.44,6.32-14.68,6.32c-12.59,0-17.9-8.28-17.9-16.38c0-11.9,9.55-17.39,24.86-17.39c2.55,0,5.7,0,7.45,0v-3.19
			c0-3.71-1.33-7.36-8.04-7.36c-6.1,0-7.44,2.59-8.11,6.38H91.3c0.78-9.28,6.52-16.79,22.4-16.7c13.99,0.09,21.6,5.55,21.6,17.98
			V119.96z M121.21,109.68c-1.21,0-3.98,0-5.89,0c-8.71,0-11.94,2.66-11.94,7.69c0,3.78,2.32,6.96,7.52,6.96
			c9.19,0,10.32-6.39,10.32-13.29V109.68z"/>
	</g>
</g>
</svg>
